<?xml version="1.0" encoding="UTF-8"?>
<svg id="Capa_2" data-name="Capa 2" xmlns="http://www.w3.org/2000/svg" viewBox="0 0 124.12 93.35">
  <defs>
    <style>
      .cls-1 {
        fill: #fff;
      }

      .cls-1, .cls-2 {
        fill-rule: evenodd;
      }

      .cls-2 {
        fill: #006580;
      }
    </style>
  </defs>
  <g id="Capa_1-2" data-name="Capa 1">
    <path class="cls-1" d="M48.67,52.49h7.02c.55.03.91.14.91.48,0,1.18.31,3.08-.15,4.17-.5,1.14-1.75,1.86-2.71,2.65-.47.38-.95.75-1.42,1.12v.11l3.79.02c1.77,0-.09,2.5,2.12.33.15-.14.33-.22.48-.28.08-.03.37-.07.81-.07l7.07.06c.99,0,.91.15,1.35.98l1.73,3.2,4.18-3.19c.51-.37,1.01-.73,1.52-1.09.08-.03.34-.07.72-.07l7.11.02c.59,0,.79.01.79.62v1.69c1.38-.77,2.76-1.52,4.16-2.19,3.54-1.06,7.43-.02,11.02-.15.93.05,1.96.67,2.63,1.22.58.55,1.08,1.13,1.58,1.72l2.46-1.72c.63-.4,1.31-.74,2-1.01.81-.31,1.21-.19,2.19-.19l7.4-.05c1.15,0,.76-.09,1.83.11,1.04.19,1.92.63,2.71,1.28,2.34,1.93,2.08,4.99,2.08,8.1l.06,7.44c0,1.16.09,2.47-.2,3.46-.5,1.7-1.94,2.91-3.22,4.15-1.24,1.2-2.48,2.39-3.71,3.59-1.26,1.21-2.59,2.82-4.09,3.7-1.18.69-2.74.58-4.31.58h-4.28c-1.2,0-2.4-.02-3.6-.03-.64-.08-1.28-.3-1.84-.55-.6-.27-1.09-.65-1.6-1.1-.29-.25-1.07-1.48-1.35-1.48-.35,0-2.05,1.79-2.49,2.1-.8.54-1.76.94-2.79,1.04-2.04,0-4.09.02-6.13.02-1.35,0-2.94.15-4.22-.07-.63-.11-1.24-.36-1.78-.67-.33-.19-.75-.63-1.16-.66-.71-.05-1.13,1.2-1.76,1.36-2.8.01-5.61.02-8.41.03l-.07-3.36s-.02-.23-.15-.11c-.57.39-2.63,2.78-3.59,3.33-.26.15-.36.17-.6-.02-.8-.66-2.03-3.58-2.68-3.45-.65.12-.1,3.32-.83,3.56-.27.09-.61.12-.96.12l-7.99-.07v-1.51c-.41,0-1.25,1.29-1.77,1.45-.26.08-.58.1-.91.1l-7.46-.03c-.25,0-.3-.08-.3-.41l-.02-1.89c0-.32-.22-.31-.48-.13-.35.33-.71.65-1.06.98-.73.61-1.54,1.1-2.46,1.37-.38.11-.92.13-1.49.13h-11.47c-.64-.01-1.27,0-1.64-.14-3.48-1.23-3.96-3.97-4.98-6.98-.08-.24-.27-1.02-.65-.99-.38.03-1.54,1.34-1.88,1.67-1.24,1.21-2.48,2.43-3.71,3.64-1.04,1-1.97,1.97-3.21,2.54-.29.13-.65.2-1.02.2H.91c-.53,0-.84-.04-.84-.4L0,86.17c0-.33.03-.65.12-.9.11-.37.69-.76.98-1.02,1.04-.99,2.08-1.97,3.11-2.96,1.31-3.8,2.61-7.6,3.91-11.4.39-1.1.78-2.19,1.16-3.28.41-.32.82-.64,1.23-.96.96-.7,1.92-1.41,2.88-2.11.76-.55,1.52-1.11,2.28-1.66.35-.23.7-.45,1.05-.68.06-.02.18-.04.35-.04l7.56.02c.5,0,.93.19.98.38l1.16,3,3.48-2.61c.76-.57,1.65-.92,2.49-.92l6.65-.13c.37,0,.41-.1.44-.21l.12-1.81c.17-.42,1.44-1.19,1.84-1.49l6.21-4.7c.2-.14.42-.2.66-.2"/>
    <path class="cls-1" d="M89.29,29.27l2.96,2.19c.32.21.35.52.1.94l-2.51,4.3c-.8,1.21-4.24,3.69-5.6,5.01l.03.09c.16.34.01.62-.43.85l-2.13,1.19-9.4,6.78c-.51.24-.76.18-.91-.07l-1.34-1.65-4.83,3.57-5.09.02c-.57-.03-.69-.19-.76-.49l-.99-3.94c-1.12-.48-.79-.38-1.89-.65l-2.75,3.09c-.22.28-.54.3-.95.04l-5.22-3.07c-.46-.32-.53-.55-.37-.81l1.48-3.83c-.5-.44-.95-.63-1.41-1.12l-3.87,1.45c-.34.15-.62.02-.86-.4l-2.44-4.2c-.25-.49-.19-.73.07-.88l3.11-2.64c-.3-.81-.47-1.42-.65-2.28l-4.02-.59c-.37-.03-.55-.28-.54-.76l-.02-4.17c-.11-.7,3.8-4.1,4.42-4.72l-2.32-1.98c-.3-.21-.32-.51-.07-.91l2.15-3.63c.52-.73,2.24-1.95,3.09-2.89l4.65-3.37c.12-.14.23-.23.34-.27,1.61-1.47,3.51-3.84,5.06-5.04l4.34-2.45c.53-.25.78-.19.94.07l1.63,2.1c.81-.81,3.34-4.01,4.44-4.01l4.79-.15c.59.03.78.19.79.49l.83,4.14c1.02-.52,5.3-3.27,6.21-2.74l4.54,2.31c.49.32.56.55.41.82l-1.37,3.94c.73.58,1.01.79,1.65,1.46l3.91-1.47c.35-.15.64-.02.89.41l2.7,4.32c.26.51.2.75-.07.91l-3.09,2.64c.36.93.38,1.3.58,2.29l3.98.62c.38.04.56.3.55.78l.02,4.97c-.08,1.05-3.78,2.76-4.74,3.36"/>
    <path class="cls-2" d="M63.51,13.6c8.54,0,15.5,6.46,15.5,14.39,0,3.09-1.06,5.96-2.86,8.3-2.09,1-4.45,1.57-6.96,1.57-8.37,0-15.19-6.33-15.19-14.1,0-3.45,1.35-6.61,3.57-9.06,1.83-.71,3.83-1.1,5.93-1.1M72.86,5.24c1.02.15,2.02.38,2.98.68l2.63-3.17c.21-.29.53-.32.95-.07l3.78,2.05c.47.31.55.54.4.79l-1.33,3.82c.7.56,1.36,1.17,1.98,1.82l3.79-1.42c.34-.15.62-.02.86.4l2.21,3.6c.25.49.19.73-.07.88l-3,2.55c.35.9.62,1.84.82,2.8l3.86.6c.37.04.55.29.53.76l.02,4.18c-.04.55-.21.72-.52.73l-3.88.73c-.15.74-.34,1.46-.58,2.16l3.1,2.3c.31.2.34.5.09.91l-2.04,3.69c-.31.46-.54.54-.81.4l-3.89-1.17c-.72.82-1.51,1.59-2.37,2.28l1.44,3.68c.15.33.01.6-.42.82l-3.75,2.1c-.51.24-.76.18-.91-.07l-2.76-3.08c-.7.22-1.41.41-2.14.55l-.58,4c-.03.36-.29.53-.78.53l-4.33.1c-.57-.03-.75-.19-.76-.49l-.9-4.04c-1.16-.2-2.29-.49-3.37-.88l-2.75,3.09c-.22.28-.54.3-.95.04l-3.7-2.17c-.46-.32-.53-.55-.37-.81l1.48-3.83c-.5-.44-.99-.9-1.44-1.39l-3.87,1.45c-.34.15-.62.02-.86-.4l-2.21-3.6c-.25-.49-.19-.73.07-.88l3.11-2.64c-.3-.81-.55-1.65-.73-2.51l-4.02-.59c-.37-.03-.55-.28-.54-.76l-.05-4.18c.04-.55.21-.72.51-.73l4.05-.79c.18-.91.43-1.8.75-2.66l-3.18-2.5c-.3-.21-.32-.51-.07-.91l2.15-3.63c.32-.45.56-.52.82-.38l4.02,1.33c.56-.61,1.16-1.18,1.8-1.71l-1.52-3.8c-.15-.32-.02-.6.41-.83l3.73-2.13c.51-.24.75-.19.91.06l2.85,3.13c.65-.22,1.32-.4,2-.55l.55-4.06c.03-.36.28-.54.77-.54l4.33-.14c.57.03.76.19.77.48l.94,4.01ZM89.29,29.27l2.96,2.19c.32.21.35.52.1.94l-2.51,4.3c-.8,1.21-4.24,3.69-5.61,5.01l.03.09c.16.34.01.62-.43.85l-2.13,1.19-9.4,6.78c-.51.24-.76.18-.91-.07l-1.34-1.65-4.83,3.57-5.09.02c-.57-.03-.69-.19-.76-.49l-.99-3.94c-1.12-.48-.79-.38-1.89-.65l-2.75,3.09c-.22.28-.54.3-.95.04l-5.22-3.07c-.46-.32-.53-.55-.37-.81l1.48-3.83c-.5-.44-.95-.63-1.41-1.12l-3.88,1.45c-.34.15-.62.02-.86-.4l-2.44-4.2c-.25-.49-.19-.73.07-.88l3.11-2.64c-.3-.81-.47-1.42-.65-2.28l-4.02-.59c-.37-.03-.55-.28-.54-.76l-.02-4.17c-.11-.7,3.8-4.1,4.42-4.72l-2.32-1.98c-.3-.21-.32-.51-.07-.91l2.15-3.63c.52-.73,2.24-1.95,3.09-2.89l4.65-3.37c.12-.14.23-.23.34-.27,1.61-1.47,3.51-3.84,5.06-5.04l4.34-2.45c.53-.25.78-.19.94.07l1.63,2.1c.81-.81,3.34-4.02,4.44-4.01l4.79-.15c.59.03.78.19.79.49l.83,4.14c1.02-.52,5.31-3.26,6.21-2.74l4.54,2.31c.49.32.56.55.41.82l-1.37,3.94c.73.58,1.01.79,1.64,1.46l3.91-1.47c.35-.15.64-.02.88.41l2.7,4.32c.26.51.2.75-.07.91l-3.09,2.64c.36.93.38,1.3.58,2.29l3.98.62c.38.04.56.3.55.79l.02,4.97c-.08,1.05-3.78,2.76-4.74,3.36ZM69.2,9.17c8.66,0,15.73,6.56,15.73,14.6s-7.07,14.6-15.73,14.6-15.73-6.56-15.73-14.6,7.07-14.6,15.73-14.6ZM70.8,21.72c-3.56-2.59-9.64-1.66-11.19,3.52-.05.8-1.41,2.39-2.28,2.47-.88.09-1.7,1.43-.71,1.43h19.29c1.93,0,.65-1.38.03-1.48-1.17-.17-2.39-1.29-2.68-2.41-.29-1.15-.85-1.97-1.63-2.86l1.6-1.47c.36-.3-.25-.97-.59-.72l-1.81,1.51h-.02ZM65.98,26.66c.11,0,.2.09.2.19s-.09.19-.2.19-.2-.09-.2-.19.09-.19.2-.19ZM69.83,23.8l3.2-2.93c.33-.27-.16-.72-.43-.44l-7.11,6.05c-.56.61.26,1.22.84.81l3.78-3.16c.12-.11-.15-.4-.28-.33Z"/>
    <path class="cls-2" d="M32.33,61.52c-2.25.79-3.69,2-4.11,4.49-.01,1.41-.04,2.82-.04,4.23,0,.52-.2.49-.35,0l-2.56-8.02c-.19-.6-.45-.71-1.15-.71l-5.85-.03c-1.19,0-1.79.17-2.05.96l-3.62,10.69c-.31.93-.65,2.55-1.26,3.29-.63.76-1.75,1.11-2.78,1.11-.02.74-.04,1.49-.06,2.23,0,1.56,0,3.12,0,4.67.08.42,0,.7.73.72h4.22c5.38-1.53,5.46-5.11,7.07-9.75.75-2.2.66-1.94,1.3.01,1.23,3.97,1.68,8.74,6.71,9.7h15.38c2.79-.51,4.09-3.44,4.1-5.82v-1.73c.01-.99-.23-1.01-1.16-1.01h-4.77c-.2,0-.34.18-.38.36-.12.63.25,1.82-.81,1.9-.58,0-1.16.01-1.74.02-.07,0-.11.03-.11-.05h-.06v-.22c.78-.67,1.73-1.95,2.6-2.41.41-.17,5.52-.11,6.22-.06.2.02.33.1.42.26.11.2.22.52.22.91l-.11,6.51c-.02.98.17,1.26.97,1.26h6.21c.67,0,1.05-.28,1.03-1.17-.06-2.32.03-4.65.04-6.97v-14.74c.04-.53-.37-.7-.99-.71h-6.28c-.85-.05-.83.13-.79.87l-.07,7.67-5.56,5.11-6.11.04c-1.07-.13.4-2.3-1.38-2.31-.64,0-.7-.25-.7-.74v-3.7c.02-.44.29-.83.97-.84h4.91c.76,0,1.05.15,1.05.92v.66c0,.58.2.78.61.78h4.75c.71,0,.94-.09.94-.86v-3.74c-.25-1.29-1.48-2.63-2.68-3.26-.96-.5-2.14-.64-3.37-.64l-8.5.02c-.28,0-.85.04-1.07.12M111.33,67.59h4.83c.34,0,.6.13.7.21.18.14.27.32.3.56l.02,9.79c0,.4-.17.58-.44.58h-4.01c-.39,0-.46-.15-.46-.53v-4.69c.03-.79-.38-.98-1.31-.97-.18-.01-.42-.27-.43-.55v-3.45c0-.43.18-.94.8-.94ZM91.19,67.49c1.33,0,2.64-.03,3.97-.03.45,0,1.05-.03,1.4.13.84.38-.21,1.95.96,2.37l6.44-.03h.06l-5.42,5.1h-6.12c-.28,0-.43-.23-.45-.46v-1.65c-.03-.98-1.59.25-1.6-1.17v-3.56c.07-.37.44-.67.76-.71ZM108.61,61.3c-1.81.3-3.45,1.69-4.13,3.31-.05.12-.13.37-.24.57-.19.31-.45.3-.62.02-1.05-1.81-2.66-3.86-5.05-3.87h-9.62c-1.78.22-3.51,1.45-4.35,2.98-.17.38-.33.77-.51,1.15-.25.54-.39.35-.39-.2v-3.13c0-.66-.37-.79-1.17-.83h-5.66c-1.19.02-1.3.02-1.95,1.11l-3.26,6.28c-.28.53-.47.65-.79.04l-3.19-6.18c-.55-1.03-.51-1.16-1.73-1.16l-6.08-.03c-.98,0-1.03.21-1.02,1.16l.05,21.94c0,.37.02.66.86.66h6.49c.45,0,.89-.17.88-.84l-.04-6.6c0-.21.02-.13.09,0l3.91,7.16c.14.26.23.33.4-.01l2.98-5.74c.26-.51.53-1.01.79-1.52.05-.07.15-.05.16,0,0,1.92.12,4.34.06,6.25-.03,1.02.41,1.24,1.73,1.25h5.81c.33.02.74-.18.74-.84v-3.88c0-.42.23-.44.3-.02.43,2.55,2.58,4.3,5.14,4.76l9.53.04c.84,0,1.86-.42,2.52-.86,1.66-1.12,2.43-2.41,2.43-4.06v-2.46c0-.48.03-.98-.92-.98l-5.09-.02c-.58,0-.51.18-.52.72-.05,1.67-1.1,1.36-2.53,1.36l2.4-2.39h6.2c.8,0,.97.17.97.91v2.84c.02,1.12.48,2.08,1.13,2.87.95,1.15,2.25,1.86,3.76,2.05l9.79.03c4.44-.87,4.69-3.86,4.69-8.12l-.03-10.32c-.42-2.95-2.32-5.24-5.23-5.38l-9.69.03ZM49.62,52.97c-.94,0-1.18,0-1.18.92l-.02,4.05c0,.9.15.89,1.07.9h3.8c1.41.02,3-1.38,3.02-2.74l.03-2.33c.01-.77-.36-.8-1.14-.8h-5.58ZM48.67,52.49h7.02c.55.03.91.14.91.48l-.02,3.46c.02.24-.04.47-.14.71-.5,1.14-1.75,1.86-2.71,2.65-.47.38-.95.75-1.42,1.12v.11l3.79.02c.34,0,.73.04.73.47v1.08h.15l1.24-1.22c.15-.14.33-.22.48-.28.08-.03.38-.07.81-.07l7.07.06c.99,0,.91.15,1.35.98l1.73,3.2,4.18-3.19c.51-.36,1.01-.73,1.52-1.09.08-.03.34-.07.72-.07l7.11.02c.59,0,.79.01.79.62v1.69c1.38-.77,2.76-1.52,4.16-2.19.95-.28,2.3-.15,3.38-.15h7.48c.05,0,.11,0,.16,0,.93.05,1.96.67,2.63,1.22.58.55,1.08,1.13,1.58,1.72l2.46-1.72c.63-.4,1.31-.74,2-1.01.81-.31,1.21-.19,2.19-.19l7.4-.05c1.15,0,.76-.09,1.83.11,1.04.19,1.92.63,2.71,1.28,2.34,1.93,2.08,4.99,2.08,8.1l.06,7.44c0,1.16.09,2.47-.2,3.46-.5,1.7-1.94,2.91-3.22,4.15-1.24,1.2-2.48,2.39-3.71,3.59-1.26,1.21-2.59,2.82-4.09,3.7-1.18.69-2.74.58-4.31.58h-4.28c-1.2,0-2.4-.02-3.6-.03-.64-.08-1.28-.3-1.84-.55-.6-.27-1.09-.65-1.6-1.1-.29-.25-1.07-1.48-1.35-1.48-.35,0-2.05,1.79-2.49,2.1-.8.54-1.77.94-2.8,1.04-2.04,0-4.09.02-6.13.02-1.35,0-2.94.15-4.22-.07-.63-.11-1.24-.36-1.78-.67-.33-.19-.75-.63-1.16-.66-.71-.05-1.13,1.2-1.76,1.36-2.8.01-5.61.02-8.41.03l-.07-3.36s-.02-.23-.15-.11c-.57.39-2.63,2.78-3.59,3.33-.26.15-.36.17-.6-.02-.8-.66-2.03-3.58-2.68-3.45-.65.12-.1,3.32-.83,3.56-.27.09-.61.12-.96.12l-7.99-.07v-1.51c-.41,0-1.25,1.29-1.77,1.45-.26.08-.58.1-.91.1l-7.46-.03c-.24,0-.3-.08-.3-.41l-.02-1.89c0-.32-.22-.31-.48-.13-.35.33-.71.65-1.06.98-.74.61-1.54,1.1-2.46,1.37-.38.11-.92.13-1.49.13h-11.47c-.64-.01-1.27,0-1.64-.14-3.48-1.23-3.96-3.97-4.98-6.98-.08-.24-.27-1.02-.65-.99-.38.03-1.54,1.34-1.88,1.67-1.24,1.21-2.48,2.43-3.71,3.64-1.04,1-1.97,1.97-3.21,2.54-.29.13-.65.2-1.02.2H.91c-.53,0-.84-.04-.84-.4L0,86.17c0-.33.03-.65.12-.9.11-.37.69-.76.98-1.02,1.04-.99,2.08-1.97,3.11-2.96,1.3-3.8,2.61-7.6,3.91-11.4.39-1.1.78-2.19,1.16-3.28.41-.32.82-.64,1.23-.96.96-.7,1.92-1.41,2.88-2.11.76-.56,1.52-1.11,2.28-1.66.35-.23.7-.45,1.05-.68.06-.02.18-.04.35-.04l7.56.03c.5,0,.92.19.98.38l1.16,3,3.47-2.61c.76-.57,1.66-.92,2.49-.92l6.65-.13c.37,0,.41-.1.44-.21l.12-1.81c.17-.42,1.44-1.19,1.84-1.49l6.21-4.7c.2-.14.42-.2.66-.2Z"/>
    <path class="cls-1" d="M48.67,52.49h7.02c.55.03.91.14.91.48,0,1.18.31,3.08-.15,4.17-.5,1.14-1.75,1.86-2.71,2.65-.47.38-.95.75-1.42,1.12v.11l3.79.02c1.77,0-.09,2.5,2.12.33.15-.14.33-.22.48-.28.08-.03.37-.07.81-.07l7.07.06c.99,0,.91.15,1.35.98l1.73,3.2,4.18-3.19c.51-.37,1.01-.73,1.52-1.09.08-.03.34-.07.72-.07l7.11.02c.59,0,.79.01.79.62v1.69c1.38-.77,2.76-1.52,4.16-2.19,3.54-1.06,7.43-.02,11.02-.15.93.05,1.96.67,2.63,1.22.58.55,1.08,1.13,1.58,1.72l2.46-1.72c.63-.4,1.31-.74,2-1.01.81-.31,1.21-.19,2.19-.19l7.4-.05c1.15,0,.76-.09,1.83.11,1.04.19,1.92.63,2.71,1.28,2.34,1.93,2.08,4.99,2.08,8.1l.06,7.44c0,1.16.09,2.47-.2,3.46-.5,1.7-1.94,2.91-3.22,4.15-1.24,1.2-2.48,2.39-3.71,3.59-1.26,1.21-2.59,2.82-4.09,3.7-1.18.69-2.74.58-4.31.58h-4.28c-1.2,0-2.4-.02-3.6-.03-.64-.08-1.28-.3-1.84-.55-.6-.27-1.09-.65-1.6-1.1-.29-.25-1.07-1.48-1.35-1.48-.35,0-2.05,1.79-2.49,2.1-.8.54-1.76.94-2.79,1.04-2.04,0-4.09.02-6.13.02-1.35,0-2.94.15-4.22-.07-.63-.11-1.24-.36-1.78-.67-.33-.19-.75-.63-1.16-.66-.71-.05-1.13,1.2-1.76,1.36-2.8.01-5.61.02-8.41.03l-.07-3.36s-.02-.23-.15-.11c-.57.39-2.63,2.78-3.59,3.33-.26.15-.36.17-.6-.02-.8-.66-2.03-3.58-2.68-3.45-.65.12-.1,3.32-.83,3.56-.27.09-.61.12-.96.12l-7.99-.07v-1.51c-.41,0-1.25,1.29-1.77,1.45-.26.08-.58.1-.91.1l-7.46-.03c-.25,0-.3-.08-.3-.41l-.02-1.89c0-.32-.22-.31-.48-.13-.35.33-.71.65-1.06.98-.73.61-1.54,1.1-2.46,1.37-.38.11-.92.13-1.49.13h-11.47c-.64-.01-1.27,0-1.64-.14-3.48-1.23-3.96-3.97-4.98-6.98-.08-.24-.27-1.02-.65-.99-.38.03-1.54,1.34-1.88,1.67-1.24,1.21-2.48,2.43-3.71,3.64-1.04,1-1.97,1.97-3.21,2.54-.29.13-.65.2-1.02.2H.91c-.53,0-.84-.04-.84-.4L0,86.17c0-.33.03-.65.12-.9.11-.37.69-.76.98-1.02,1.04-.99,2.08-1.97,3.11-2.96,1.31-3.8,2.61-7.6,3.91-11.4.39-1.1.78-2.19,1.16-3.28.41-.32.82-.64,1.23-.96.96-.7,1.92-1.41,2.88-2.11.76-.55,1.52-1.11,2.28-1.66.35-.23.7-.45,1.05-.68.06-.02.18-.04.35-.04l7.56.02c.5,0,.93.19.98.38l1.16,3,3.48-2.61c.76-.57,1.65-.92,2.49-.92l6.65-.13c.37,0,.41-.1.44-.21l.12-1.81c.17-.42,1.44-1.19,1.84-1.49l6.21-4.7c.2-.14.42-.2.66-.2"/>
    <path class="cls-1" d="M89.29,29.27l2.96,2.19c.32.21.35.52.1.94l-2.51,4.3c-.8,1.21-4.24,3.69-5.6,5.01l.03.09c.16.34.01.62-.43.85l-2.13,1.19-9.4,6.78c-.51.24-.76.18-.91-.07l-1.34-1.65-4.83,3.57-5.09.02c-.57-.03-.69-.19-.76-.49l-.99-3.94c-1.12-.48-.79-.38-1.89-.65l-2.75,3.09c-.22.28-.54.3-.95.04l-5.22-3.07c-.46-.32-.53-.55-.37-.81l1.48-3.83c-.5-.44-.95-.63-1.41-1.12l-3.87,1.45c-.34.15-.62.02-.86-.4l-2.44-4.2c-.25-.49-.19-.73.07-.88l3.11-2.64c-.3-.81-.47-1.42-.65-2.28l-4.02-.59c-.37-.03-.55-.28-.54-.76l-.02-4.17c-.11-.7,3.8-4.1,4.42-4.72l-2.32-1.98c-.3-.21-.32-.51-.07-.91l2.15-3.63c.52-.73,2.24-1.95,3.09-2.89l4.65-3.37c.12-.14.23-.23.34-.27,1.61-1.47,3.51-3.84,5.06-5.04l4.34-2.45c.53-.25.78-.19.94.07l1.63,2.1c.81-.81,3.34-4.01,4.44-4.01l4.79-.15c.59.03.78.19.79.49l.83,4.14c1.02-.52,5.3-3.27,6.21-2.74l4.54,2.31c.49.32.56.55.41.82l-1.37,3.94c.73.58,1.01.79,1.65,1.46l3.91-1.47c.35-.15.64-.02.89.41l2.7,4.32c.26.51.2.75-.07.91l-3.09,2.64c.36.93.38,1.3.58,2.29l3.98.62c.38.04.56.3.55.78l.02,4.97c-.08,1.05-3.78,2.76-4.74,3.36"/>
    <path class="cls-2" d="M63.51,13.6c8.54,0,15.5,6.46,15.5,14.39,0,3.09-1.06,5.96-2.86,8.3-2.09,1-4.45,1.57-6.96,1.57-8.37,0-15.19-6.33-15.19-14.1,0-3.45,1.35-6.61,3.57-9.06,1.83-.71,3.83-1.1,5.93-1.1M72.86,5.24c1.02.15,2.02.38,2.98.68l2.63-3.17c.21-.29.53-.32.95-.07l3.78,2.05c.47.31.55.54.4.79l-1.33,3.82c.7.56,1.36,1.17,1.98,1.82l3.79-1.42c.34-.15.62-.02.86.4l2.21,3.6c.25.49.19.73-.07.88l-3,2.55c.35.9.62,1.84.82,2.8l3.86.6c.37.04.55.29.53.76l.02,4.18c-.04.55-.21.72-.52.73l-3.88.73c-.15.74-.34,1.46-.58,2.16l3.1,2.3c.31.2.34.5.09.91l-2.04,3.69c-.31.46-.54.54-.81.4l-3.89-1.17c-.72.82-1.51,1.59-2.37,2.28l1.44,3.68c.15.33.01.6-.42.82l-3.75,2.1c-.51.24-.76.18-.91-.07l-2.76-3.08c-.7.22-1.41.41-2.14.55l-.58,4c-.03.36-.29.53-.78.53l-4.33.1c-.57-.03-.75-.19-.76-.49l-.9-4.04c-1.16-.2-2.29-.49-3.37-.88l-2.75,3.09c-.22.28-.54.3-.95.04l-3.7-2.17c-.46-.32-.53-.55-.37-.81l1.48-3.83c-.5-.44-.99-.9-1.44-1.39l-3.87,1.45c-.34.15-.62.02-.86-.4l-2.21-3.6c-.25-.49-.19-.73.07-.88l3.11-2.64c-.3-.81-.55-1.65-.73-2.51l-4.02-.59c-.37-.03-.55-.28-.54-.76l-.05-4.18c.04-.55.21-.72.51-.73l4.05-.79c.18-.91.43-1.8.75-2.66l-3.18-2.5c-.3-.21-.32-.51-.07-.91l2.15-3.63c.32-.45.56-.52.82-.38l4.02,1.33c.56-.61,1.16-1.18,1.8-1.71l-1.52-3.8c-.15-.32-.02-.6.41-.83l3.73-2.13c.51-.24.75-.19.91.06l2.85,3.13c.65-.22,1.32-.4,2-.55l.55-4.06c.03-.36.28-.54.77-.54l4.33-.14c.57.03.76.19.77.48l.94,4.01ZM89.29,29.27l2.96,2.19c.32.21.35.52.1.94l-2.51,4.3c-.8,1.21-4.24,3.69-5.61,5.01l.03.09c.16.34.01.62-.43.85l-2.13,1.19-9.4,6.78c-.51.24-.76.18-.91-.07l-1.34-1.65-4.83,3.57-5.09.02c-.57-.03-.69-.19-.76-.49l-.99-3.94c-1.12-.48-.79-.38-1.89-.65l-2.75,3.09c-.22.28-.54.3-.95.04l-5.22-3.07c-.46-.32-.53-.55-.37-.81l1.48-3.83c-.5-.44-.95-.63-1.41-1.12l-3.88,1.45c-.34.15-.62.02-.86-.4l-2.44-4.2c-.25-.49-.19-.73.07-.88l3.11-2.64c-.3-.81-.47-1.42-.65-2.28l-4.02-.59c-.37-.03-.55-.28-.54-.76l-.02-4.17c-.11-.7,3.8-4.1,4.42-4.72l-2.32-1.98c-.3-.21-.32-.51-.07-.91l2.15-3.63c.52-.73,2.24-1.95,3.09-2.89l4.65-3.37c.12-.14.23-.23.34-.27,1.61-1.47,3.51-3.84,5.06-5.04l4.34-2.45c.53-.25.78-.19.94.07l1.63,2.1c.81-.81,3.34-4.02,4.44-4.01l4.79-.15c.59.03.78.19.79.49l.83,4.14c1.02-.52,5.31-3.26,6.21-2.74l4.54,2.31c.49.32.56.55.41.82l-1.37,3.94c.73.58,1.01.79,1.64,1.46l3.91-1.47c.35-.15.64-.02.88.41l2.7,4.32c.26.51.2.75-.07.91l-3.09,2.64c.36.93.38,1.3.58,2.29l3.98.62c.38.04.56.3.55.79l.02,4.97c-.08,1.05-3.78,2.76-4.74,3.36ZM69.2,9.17c8.66,0,15.73,6.56,15.73,14.6s-7.07,14.6-15.73,14.6-15.73-6.56-15.73-14.6,7.07-14.6,15.73-14.6ZM70.8,21.72c-3.56-2.59-9.64-1.66-11.19,3.52-.05.8-1.41,2.39-2.28,2.47-.88.09-1.7,1.43-.71,1.43h19.29c1.93,0,.65-1.38.03-1.48-1.17-.17-2.39-1.29-2.68-2.41-.29-1.15-.85-1.97-1.63-2.86l1.6-1.47c.36-.3-.25-.97-.59-.72l-1.81,1.51h-.02ZM65.98,26.66c.11,0,.2.09.2.19s-.09.19-.2.19-.2-.09-.2-.19.09-.19.2-.19ZM69.83,23.8l3.2-2.93c.33-.27-.16-.72-.43-.44l-7.11,6.05c-.56.61.26,1.22.84.81l3.78-3.16c.12-.11-.15-.4-.28-.33Z"/>
    <path class="cls-2" d="M32.33,61.52c-2.25.79-3.69,2-4.11,4.49-.01,1.41-.04,2.82-.04,4.23,0,.52-.2.49-.35,0l-2.56-8.02c-.19-.6-.45-.71-1.15-.71l-5.85-.03c-1.19,0-1.79.17-2.05.96l-3.62,10.69c-.31.93-.65,2.55-1.26,3.29-.63.76-1.75,1.11-2.78,1.11-.02.74-.04,1.49-.06,2.23,0,1.56,0,3.12,0,4.67.08.42,0,.7.73.72h4.22c5.38-1.53,5.46-5.11,7.07-9.75.75-2.2.66-1.94,1.3.01,1.23,3.97,1.68,8.74,6.71,9.7h15.38c2.79-.51,4.09-3.44,4.1-5.82v-1.73c.01-.99-.23-1.01-1.16-1.01h-4.77c-.2,0-.34.18-.38.36-.12.63.25,1.82-.81,1.9-.58,0-1.16.01-1.74.02-.07,0-.11.03-.11-.05h-.06v-.22c.78-.67,1.73-1.95,2.6-2.41.41-.17,5.52-.11,6.22-.06.2.02.33.1.42.26.11.2.22.52.22.91l-.11,6.51c-.02.98.17,1.26.97,1.26h6.21c.67,0,1.05-.28,1.03-1.17-.06-2.32.03-4.65.04-6.97v-14.74c.04-.53-.37-.7-.99-.71h-6.28c-.85-.05-.83.13-.79.87l-.07,7.67-5.56,5.11-6.11.04c-1.07-.13.4-2.3-1.38-2.31-.64,0-.7-.25-.7-.74v-3.7c.02-.44.29-.83.97-.84h4.91c.76,0,1.05.15,1.05.92v.66c0,.58.2.78.61.78h4.75c.71,0,.94-.09.94-.86v-3.74c-.25-1.29-1.48-2.63-2.68-3.26-.96-.5-2.14-.64-3.37-.64l-8.5.02c-.28,0-.85.04-1.07.12M111.33,67.59h4.83c.34,0,.6.13.7.21.18.14.27.32.3.56l.02,9.79c0,.4-.17.58-.44.58h-4.01c-.39,0-.46-.15-.46-.53v-4.69c.03-.79-.38-.98-1.31-.97-.18-.01-.42-.27-.43-.55v-3.45c0-.43.18-.94.8-.94ZM91.19,67.49c1.33,0,2.64-.03,3.97-.03.45,0,1.05-.03,1.4.13.84.38-.21,1.95.96,2.37l6.44-.03h.06l-5.42,5.1h-6.12c-.28,0-.43-.23-.45-.46v-1.65c-.03-.98-1.59.25-1.6-1.17v-3.56c.07-.37.44-.67.76-.71ZM108.61,61.3c-1.81.3-3.45,1.69-4.13,3.31-.05.12-.13.37-.24.57-.19.31-.45.3-.62.02-1.05-1.81-2.66-3.86-5.05-3.87h-9.62c-1.78.22-3.51,1.45-4.35,2.98-.17.38-.33.77-.51,1.15-.25.54-.39.35-.39-.2v-3.13c0-.66-.37-.79-1.17-.83h-5.66c-1.19.02-1.3.02-1.95,1.11l-3.26,6.28c-.28.53-.47.65-.79.04l-3.19-6.18c-.55-1.03-.51-1.16-1.73-1.16l-6.08-.03c-.98,0-1.03.21-1.02,1.16l.05,21.94c0,.37.02.66.86.66h6.49c.45,0,.89-.17.88-.84l-.04-6.6c0-.21.02-.13.09,0l3.91,7.16c.14.26.23.33.4-.01l2.98-5.74c.26-.51.53-1.01.79-1.52.05-.07.15-.05.16,0,0,1.92.12,4.34.06,6.25-.03,1.02.41,1.24,1.73,1.25h5.81c.33.02.74-.18.74-.84v-3.88c0-.42.23-.44.3-.02.43,2.55,2.58,4.3,5.14,4.76l9.53.04c.84,0,1.86-.42,2.52-.86,1.66-1.12,2.43-2.41,2.43-4.06v-2.46c0-.48.03-.98-.92-.98l-5.09-.02c-.58,0-.51.18-.52.72-.05,1.67-1.1,1.36-2.53,1.36l2.4-2.39h6.2c.8,0,.97.17.97.91v2.84c.02,1.12.48,2.08,1.13,2.87.95,1.15,2.25,1.86,3.76,2.05l9.79.03c4.44-.87,4.69-3.86,4.69-8.12l-.03-10.32c-.42-2.95-2.32-5.24-5.23-5.38l-9.69.03ZM49.62,52.97c-.94,0-1.18,0-1.18.92l-.02,4.05c0,.9.15.89,1.07.9h3.8c1.41.02,3-1.38,3.02-2.74l.03-2.33c.01-.77-.36-.8-1.14-.8h-5.58ZM48.67,52.49h7.02c.55.03.91.14.91.48l-.02,3.46c.02.24-.04.47-.14.71-.5,1.14-1.75,1.86-2.71,2.65-.47.38-.95.75-1.42,1.12v.11l3.79.02c.34,0,.73.04.73.47v1.08h.15l1.24-1.22c.15-.14.33-.22.48-.28.08-.03.38-.07.81-.07l7.07.06c.99,0,.91.15,1.35.98l1.73,3.2,4.18-3.19c.51-.36,1.01-.73,1.52-1.09.08-.03.34-.07.72-.07l7.11.02c.59,0,.79.01.79.62v1.69c1.38-.77,2.76-1.52,4.16-2.19.95-.28,2.3-.15,3.38-.15h7.48c.05,0,.11,0,.16,0,.93.05,1.96.67,2.63,1.22.58.55,1.08,1.13,1.58,1.72l2.46-1.72c.63-.4,1.31-.74,2-1.01.81-.31,1.21-.19,2.19-.19l7.4-.05c1.15,0,.76-.09,1.83.11,1.04.19,1.92.63,2.71,1.28,2.34,1.93,2.08,4.99,2.08,8.1l.06,7.44c0,1.16.09,2.47-.2,3.46-.5,1.7-1.94,2.91-3.22,4.15-1.24,1.2-2.48,2.39-3.71,3.59-1.26,1.21-2.59,2.82-4.09,3.7-1.18.69-2.74.58-4.31.58h-4.28c-1.2,0-2.4-.02-3.6-.03-.64-.08-1.28-.3-1.84-.55-.6-.27-1.09-.65-1.6-1.1-.29-.25-1.07-1.48-1.35-1.48-.35,0-2.05,1.79-2.49,2.1-.8.54-1.77.94-2.8,1.04-2.04,0-4.09.02-6.13.02-1.35,0-2.94.15-4.22-.07-.63-.11-1.24-.36-1.78-.67-.33-.19-.75-.63-1.16-.66-.71-.05-1.13,1.2-1.76,1.36-2.8.01-5.61.02-8.41.03l-.07-3.36s-.02-.23-.15-.11c-.57.39-2.63,2.78-3.59,3.33-.26.15-.36.17-.6-.02-.8-.66-2.03-3.58-2.68-3.45-.65.12-.1,3.32-.83,3.56-.27.09-.61.12-.96.12l-7.99-.07v-1.51c-.41,0-1.25,1.29-1.77,1.45-.26.08-.58.1-.91.1l-7.46-.03c-.24,0-.3-.08-.3-.41l-.02-1.89c0-.32-.22-.31-.48-.13-.35.33-.71.65-1.06.98-.74.61-1.54,1.1-2.46,1.37-.38.11-.92.13-1.49.13h-11.47c-.64-.01-1.27,0-1.64-.14-3.48-1.23-3.96-3.97-4.98-6.98-.08-.24-.27-1.02-.65-.99-.38.03-1.54,1.34-1.88,1.67-1.24,1.21-2.48,2.43-3.71,3.64-1.04,1-1.97,1.97-3.21,2.54-.29.13-.65.2-1.02.2H.91c-.53,0-.84-.04-.84-.4L0,86.17c0-.33.03-.65.12-.9.11-.37.69-.76.98-1.02,1.04-.99,2.08-1.97,3.11-2.96,1.3-3.8,2.61-7.6,3.91-11.4.39-1.1.78-2.19,1.16-3.28.41-.32.82-.64,1.23-.96.96-.7,1.92-1.41,2.88-2.11.76-.56,1.52-1.11,2.28-1.66.35-.23.7-.45,1.05-.68.06-.02.18-.04.35-.04l7.56.03c.5,0,.92.19.98.38l1.16,3,3.47-2.61c.76-.57,1.66-.92,2.49-.92l6.65-.13c.37,0,.41-.1.44-.21l.12-1.81c.17-.42,1.44-1.19,1.84-1.49l6.21-4.7c.2-.14.42-.2.66-.2Z"/>
  </g>
</svg>